<svg
  width="56"
  height="56"
  viewBox="0 0 56 56"
  fill="none"
  xmlns="http://www.w3.org/2000/svg"
>
  <path
    d="M42 44.5C42 46.709 40.209 48.5 38 48.5H16C13.791 48.5 12 46.709 12 44.5V16.5C12 14.291 13.791 12.5 16 12.5H38C40.209 12.5 42 14.291 42 16.5V44.5Z"
    fill="#CCD6DD"
  ></path>
  <path
    d="M38 36.5C38 37.053 37.553 37.5 37 37.5H17C16.448 37.5 16 37.053 16 36.5C16 35.947 16.448 35.5 17 35.5H37C37.553 35.5 38 35.947 38 36.5ZM22 40.5C22 41.053 21.552 41.5 21 41.5H17C16.448 41.5 16 41.053 16 40.5C16 39.947 16.448 39.5 17 39.5H21C21.552 39.5 22 39.947 22 40.5ZM38 20.5C38 21.052 37.553 21.5 37 21.5H17C16.448 21.5 16 21.052 16 20.5C16 19.948 16.448 19.5 17 19.5H37C37.553 19.5 38 19.948 38 20.5ZM38 24.5C38 25.053 37.553 25.5 37 25.5H17C16.448 25.5 16 25.053 16 24.5C16 23.947 16.448 23.5 17 23.5H37C37.553 23.5 38 23.947 38 24.5ZM38 28.5C38 29.053 37.553 29.5 37 29.5H17C16.448 29.5 16 29.053 16 28.5C16 27.947 16.448 27.5 17 27.5H37C37.553 27.5 38 27.947 38 28.5ZM38 32.5C38 33.053 37.553 33.5 37 33.5H17C16.448 33.5 16 33.053 16 32.5C16 31.947 16.448 31.5 17 31.5H37C37.553 31.5 38 31.947 38 32.5Z"
    fill="#99AAB5"
  ></path>
  <path
    d="M10.5776 10.0503L7.09246 8.71209L5.79107 4.28762C5.74094 4.117 5.58859 4 5.41667 4C5.24474 4 5.09239 4.117 5.04227 4.28762L3.74126 8.71209L0.255736 10.0503C0.101825 10.1096 0 10.2611 0 10.4313C0 10.6012 0.101825 10.7535 0.255736 10.8124L3.73931 12.1502L5.04109 16.7095C5.09044 16.8818 5.24317 17 5.41667 17C5.58977 17 5.7429 16.8818 5.79224 16.7091L7.09403 12.1498L10.578 10.812C10.7311 10.7535 10.8333 10.6016 10.8333 10.4313C10.8333 10.2615 10.7311 10.1096 10.5776 10.0503Z"
    fill="#FFAC33"
  ></path>
  <path
    d="M51.009 50.393L48.645 49.518L47.769 47.153C47.624 46.76 47.25 46.5 46.831 46.5C46.413 46.5 46.039 46.76 45.893 47.153L45.018 49.518L42.653 50.393C42.26 50.539 42 50.913 42 51.331C42 51.749 42.26 52.124 42.653 52.269L45.018 53.144L45.893 55.509C46.039 55.902 46.413 56.162 46.831 56.162C47.249 56.162 47.623 55.902 47.769 55.509L48.644 53.144L51.009 52.269C51.402 52.123 51.662 51.749 51.662 51.331C51.662 50.913 51.402 50.539 51.009 50.393Z"
    fill="#FFCC4D"
  ></path>
  <path
    d="M15.1575 3.3555L16.5945 3.85483C16.8385 3.93883 17 4.15758 17 4.40142C17 4.64525 16.8385 4.864 16.5945 4.948L15.1656 5.44558L14.6024 7.55842C14.5328 7.818 14.285 8 14 8C13.715 8 13.4672 7.818 13.3976 7.559L12.8344 5.44617L11.4055 4.94858C11.1615 4.864 11 4.64525 11 4.40142C11 4.15758 11.1615 3.93883 11.4055 3.85425L12.8419 3.35492L13.4007 1.42992C13.4746 1.17617 13.7199 1 14 1C14.2801 1 14.5254 1.17617 14.5986 1.4305L15.1575 3.3555Z"
    fill="#FFCC4D"
  ></path>
  <defs>
    <clipPath>
      <rect
        width="36"
        height="36"
        fill="white"
        transform="translate(11 12.5)"
      ></rect>
    </clipPath>
  </defs>
</svg>
